<svg width="252" height="110" viewBox="0 0 252 110" fill="none" xmlns="http://www.w3.org/2000/svg">
<path d="M237.889 6.875C237.889 10.672 240.923 13.75 244.665 13.75C248.408 13.75 251.441 10.672 251.441 6.875C251.441 3.07804 248.408 0 244.665 0C240.923 0 237.889 3.07804 237.889 6.875Z" fill="url(#paint0_linear_1682_1505)"/>
<path d="M190.455 6.875C190.455 10.672 193.489 13.75 197.232 13.75C200.974 13.75 204.008 10.672 204.008 6.875C204.008 3.07804 200.974 0 197.232 0C193.489 0 190.455 3.07804 190.455 6.875Z" fill="url(#paint1_linear_1682_1505)"/>
<path d="M143.022 6.875C143.022 10.672 146.055 13.75 149.798 13.75C153.54 13.75 156.574 10.672 156.574 6.875C156.574 3.07804 153.54 0 149.798 0C146.055 0 143.022 3.07804 143.022 6.875Z" fill="url(#paint2_linear_1682_1505)"/>
<path d="M95.588 6.875C95.588 10.672 98.6218 13.75 102.364 13.75C106.107 13.75 109.14 10.672 109.14 6.875C109.14 3.07804 106.107 0 102.364 0C98.6218 0 95.588 3.07804 95.588 6.875Z" fill="url(#paint3_linear_1682_1505)"/>
<path d="M48.1543 6.875C48.1543 10.672 51.1881 13.75 54.9305 13.75C58.673 13.75 61.7068 10.672 61.7068 6.875C61.7068 3.07804 58.673 0 54.9305 0C51.1881 0 48.1543 3.07804 48.1543 6.875Z" fill="url(#paint4_linear_1682_1505)"/>
<path d="M0.720673 6.875C0.720673 10.672 3.7545 13.75 7.4969 13.75C11.2393 13.75 14.2731 10.672 14.2731 6.875C14.2731 3.07804 11.2393 0 7.4969 0C3.7545 0 0.720673 3.07804 0.720673 6.875Z" fill="url(#paint5_linear_1682_1505)"/>
<path d="M237.889 55C237.889 58.797 240.923 61.875 244.665 61.875C248.408 61.875 251.441 58.797 251.441 55C251.441 51.203 248.408 48.125 244.665 48.125C240.923 48.125 237.889 51.203 237.889 55Z" fill="url(#paint6_linear_1682_1505)"/>
<path d="M190.455 55C190.455 58.797 193.489 61.875 197.232 61.875C200.974 61.875 204.008 58.797 204.008 55C204.008 51.203 200.974 48.125 197.232 48.125C193.489 48.125 190.455 51.203 190.455 55Z" fill="url(#paint7_linear_1682_1505)"/>
<path d="M143.022 55C143.022 58.797 146.055 61.875 149.798 61.875C153.54 61.875 156.574 58.797 156.574 55C156.574 51.203 153.54 48.125 149.798 48.125C146.055 48.125 143.022 51.203 143.022 55Z" fill="url(#paint8_linear_1682_1505)"/>
<path d="M95.588 55C95.588 58.797 98.6218 61.875 102.364 61.875C106.107 61.875 109.14 58.797 109.14 55C109.14 51.203 106.107 48.125 102.364 48.125C98.6218 48.125 95.588 51.203 95.588 55Z" fill="url(#paint9_linear_1682_1505)"/>
<path d="M48.1543 55C48.1543 58.797 51.1881 61.875 54.9305 61.875C58.673 61.875 61.7068 58.797 61.7068 55C61.7068 51.203 58.673 48.125 54.9305 48.125C51.1881 48.125 48.1543 51.203 48.1543 55Z" fill="url(#paint10_linear_1682_1505)"/>
<path d="M0.720673 55C0.720673 58.797 3.7545 61.875 7.4969 61.875C11.2393 61.875 14.2731 58.797 14.2731 55C14.2731 51.203 11.2393 48.125 7.4969 48.125C3.7545 48.125 0.720673 51.203 0.720673 55Z" fill="url(#paint11_linear_1682_1505)"/>
<path d="M237.889 103.125C237.889 106.922 240.923 110 244.665 110C248.408 110 251.441 106.922 251.441 103.125C251.441 99.328 248.408 96.25 244.665 96.25C240.923 96.25 237.889 99.328 237.889 103.125Z" fill="url(#paint12_linear_1682_1505)"/>
<path d="M190.455 103.125C190.455 106.922 193.489 110 197.232 110C200.974 110 204.008 106.922 204.008 103.125C204.008 99.328 200.974 96.25 197.232 96.25C193.489 96.25 190.455 99.328 190.455 103.125Z" fill="url(#paint13_linear_1682_1505)"/>
<path d="M143.022 103.125C143.022 106.922 146.055 110 149.798 110C153.54 110 156.574 106.922 156.574 103.125C156.574 99.328 153.54 96.25 149.798 96.25C146.055 96.25 143.022 99.328 143.022 103.125Z" fill="url(#paint14_linear_1682_1505)"/>
<path d="M95.588 103.125C95.588 106.922 98.6218 110 102.364 110C106.107 110 109.14 106.922 109.14 103.125C109.14 99.328 106.107 96.25 102.364 96.25C98.6218 96.25 95.588 99.328 95.588 103.125Z" fill="url(#paint15_linear_1682_1505)"/>
<path d="M48.1543 103.125C48.1543 106.922 51.1881 110 54.9305 110C58.673 110 61.7068 106.922 61.7068 103.125C61.7068 99.328 58.673 96.25 54.9305 96.25C51.1881 96.25 48.1543 99.328 48.1543 103.125Z" fill="url(#paint16_linear_1682_1505)"/>
<path d="M0.720673 103.125C0.720673 106.922 3.7545 110 7.4969 110C11.2393 110 14.2731 106.922 14.2731 103.125C14.2731 99.328 11.2393 96.25 7.4969 96.25C3.7545 96.25 0.720673 99.328 0.720673 103.125Z" fill="url(#paint17_linear_1682_1505)"/>
<defs>
<linearGradient id="paint0_linear_1682_1505" x1="266.729" y1="55" x2="-49.7272" y2="54.1911" gradientUnits="userSpaceOnUse">
<stop offset="0.285271" stop-color="white" stop-opacity="0.25"/>
<stop offset="1" stop-color="white" stop-opacity="0"/>
</linearGradient>
<linearGradient id="paint1_linear_1682_1505" x1="266.729" y1="55" x2="-49.7272" y2="54.1911" gradientUnits="userSpaceOnUse">
<stop offset="0.285271" stop-color="white" stop-opacity="0.25"/>
<stop offset="1" stop-color="white" stop-opacity="0"/>
</linearGradient>
<linearGradient id="paint2_linear_1682_1505" x1="266.729" y1="55" x2="-49.7272" y2="54.1911" gradientUnits="userSpaceOnUse">
<stop offset="0.285271" stop-color="white" stop-opacity="0.25"/>
<stop offset="1" stop-color="white" stop-opacity="0"/>
</linearGradient>
<linearGradient id="paint3_linear_1682_1505" x1="266.729" y1="55" x2="-49.7272" y2="54.1911" gradientUnits="userSpaceOnUse">
<stop offset="0.285271" stop-color="white" stop-opacity="0.25"/>
<stop offset="1" stop-color="white" stop-opacity="0"/>
</linearGradient>
<linearGradient id="paint4_linear_1682_1505" x1="266.729" y1="55" x2="-49.7272" y2="54.1911" gradientUnits="userSpaceOnUse">
<stop offset="0.285271" stop-color="white" stop-opacity="0.25"/>
<stop offset="1" stop-color="white" stop-opacity="0"/>
</linearGradient>
<linearGradient id="paint5_linear_1682_1505" x1="266.729" y1="55" x2="-49.7272" y2="54.1911" gradientUnits="userSpaceOnUse">
<stop offset="0.285271" stop-color="white" stop-opacity="0.25"/>
<stop offset="1" stop-color="white" stop-opacity="0"/>
</linearGradient>
<linearGradient id="paint6_linear_1682_1505" x1="266.729" y1="55" x2="-49.7272" y2="54.1911" gradientUnits="userSpaceOnUse">
<stop offset="0.285271" stop-color="white" stop-opacity="0.25"/>
<stop offset="1" stop-color="white" stop-opacity="0"/>
</linearGradient>
<linearGradient id="paint7_linear_1682_1505" x1="266.729" y1="55" x2="-49.7272" y2="54.1911" gradientUnits="userSpaceOnUse">
<stop offset="0.285271" stop-color="white" stop-opacity="0.25"/>
<stop offset="1" stop-color="white" stop-opacity="0"/>
</linearGradient>
<linearGradient id="paint8_linear_1682_1505" x1="266.729" y1="55" x2="-49.7272" y2="54.1911" gradientUnits="userSpaceOnUse">
<stop offset="0.285271" stop-color="white" stop-opacity="0.25"/>
<stop offset="1" stop-color="white" stop-opacity="0"/>
</linearGradient>
<linearGradient id="paint9_linear_1682_1505" x1="266.729" y1="55" x2="-49.7272" y2="54.1911" gradientUnits="userSpaceOnUse">
<stop offset="0.285271" stop-color="white" stop-opacity="0.25"/>
<stop offset="1" stop-color="white" stop-opacity="0"/>
</linearGradient>
<linearGradient id="paint10_linear_1682_1505" x1="266.729" y1="55" x2="-49.7272" y2="54.1911" gradientUnits="userSpaceOnUse">
<stop offset="0.285271" stop-color="white" stop-opacity="0.25"/>
<stop offset="1" stop-color="white" stop-opacity="0"/>
</linearGradient>
<linearGradient id="paint11_linear_1682_1505" x1="266.729" y1="55" x2="-49.7272" y2="54.1911" gradientUnits="userSpaceOnUse">
<stop offset="0.285271" stop-color="white" stop-opacity="0.25"/>
<stop offset="1" stop-color="white" stop-opacity="0"/>
</linearGradient>
<linearGradient id="paint12_linear_1682_1505" x1="266.729" y1="55" x2="-49.7272" y2="54.1911" gradientUnits="userSpaceOnUse">
<stop offset="0.285271" stop-color="white" stop-opacity="0.25"/>
<stop offset="1" stop-color="white" stop-opacity="0"/>
</linearGradient>
<linearGradient id="paint13_linear_1682_1505" x1="266.729" y1="55" x2="-49.7272" y2="54.1911" gradientUnits="userSpaceOnUse">
<stop offset="0.285271" stop-color="white" stop-opacity="0.25"/>
<stop offset="1" stop-color="white" stop-opacity="0"/>
</linearGradient>
<linearGradient id="paint14_linear_1682_1505" x1="266.729" y1="55" x2="-49.7272" y2="54.1911" gradientUnits="userSpaceOnUse">
<stop offset="0.285271" stop-color="white" stop-opacity="0.25"/>
<stop offset="1" stop-color="white" stop-opacity="0"/>
</linearGradient>
<linearGradient id="paint15_linear_1682_1505" x1="266.729" y1="55" x2="-49.7272" y2="54.1911" gradientUnits="userSpaceOnUse">
<stop offset="0.285271" stop-color="white" stop-opacity="0.25"/>
<stop offset="1" stop-color="white" stop-opacity="0"/>
</linearGradient>
<linearGradient id="paint16_linear_1682_1505" x1="266.729" y1="55" x2="-49.7272" y2="54.1911" gradientUnits="userSpaceOnUse">
<stop offset="0.285271" stop-color="white" stop-opacity="0.25"/>
<stop offset="1" stop-color="white" stop-opacity="0"/>
</linearGradient>
<linearGradient id="paint17_linear_1682_1505" x1="266.729" y1="55" x2="-49.7272" y2="54.1911" gradientUnits="userSpaceOnUse">
<stop offset="0.285271" stop-color="white" stop-opacity="0.25"/>
<stop offset="1" stop-color="white" stop-opacity="0"/>
</linearGradient>
</defs>
</svg>
