<svg width="250" height="110" viewBox="0 0 250 110" fill="none" xmlns="http://www.w3.org/2000/svg">
<path d="M236.486 6.85524C236.486 10.6413 239.512 13.7105 243.243 13.7105C246.975 13.7105 250 10.6413 250 6.85524C250 3.06919 246.975 0 243.243 0C239.512 0 236.486 3.06919 236.486 6.85524Z" fill="url(#paint0_linear_1474_8473)"/>
<path d="M189.189 6.85524C189.189 10.6413 192.214 13.7105 195.946 13.7105C199.678 13.7105 202.703 10.6413 202.703 6.85524C202.703 3.06919 199.678 0 195.946 0C192.214 0 189.189 3.06919 189.189 6.85524Z" fill="url(#paint1_linear_1474_8473)"/>
<path d="M141.892 6.85524C141.892 10.6413 144.917 13.7105 148.649 13.7105C152.38 13.7105 155.405 10.6413 155.405 6.85524C155.405 3.06919 152.38 0 148.649 0C144.917 0 141.892 3.06919 141.892 6.85524Z" fill="url(#paint2_linear_1474_8473)"/>
<path d="M94.5946 6.85524C94.5946 10.6413 97.6197 13.7105 101.351 13.7105C105.083 13.7105 108.108 10.6413 108.108 6.85524C108.108 3.06919 105.083 0 101.351 0C97.6197 0 94.5946 3.06919 94.5946 6.85524Z" fill="url(#paint3_linear_1474_8473)"/>
<path d="M47.2973 6.85524C47.2973 10.6413 50.3224 13.7105 54.054 13.7105C57.7857 13.7105 60.8108 10.6413 60.8108 6.85524C60.8108 3.06919 57.7857 0 54.054 0C50.3224 0 47.2973 3.06919 47.2973 6.85524Z" fill="url(#paint4_linear_1474_8473)"/>
<path d="M0 6.85524C0 10.6413 3.0251 13.7105 6.75676 13.7105C10.4884 13.7105 13.5135 10.6413 13.5135 6.85524C13.5135 3.06919 10.4884 0 6.75676 0C3.0251 0 0 3.06919 0 6.85524Z" fill="url(#paint5_linear_1474_8473)"/>
<path d="M236.486 54.8419C236.486 58.6279 239.512 61.6971 243.243 61.6971C246.975 61.6971 250 58.6279 250 54.8419C250 51.0559 246.975 47.9867 243.243 47.9867C239.512 47.9867 236.486 51.0559 236.486 54.8419Z" fill="url(#paint6_linear_1474_8473)"/>
<path d="M189.189 54.8419C189.189 58.6279 192.214 61.6971 195.946 61.6971C199.678 61.6971 202.703 58.6279 202.703 54.8419C202.703 51.0559 199.678 47.9867 195.946 47.9867C192.214 47.9867 189.189 51.0559 189.189 54.8419Z" fill="url(#paint7_linear_1474_8473)"/>
<path d="M141.892 54.8419C141.892 58.6279 144.917 61.6971 148.649 61.6971C152.38 61.6971 155.405 58.6279 155.405 54.8419C155.405 51.0559 152.38 47.9867 148.649 47.9867C144.917 47.9867 141.892 51.0559 141.892 54.8419Z" fill="url(#paint8_linear_1474_8473)"/>
<path d="M94.5946 54.8419C94.5946 58.6279 97.6197 61.6971 101.351 61.6971C105.083 61.6971 108.108 58.6279 108.108 54.8419C108.108 51.0559 105.083 47.9867 101.351 47.9867C97.6197 47.9867 94.5946 51.0559 94.5946 54.8419Z" fill="url(#paint9_linear_1474_8473)"/>
<path d="M47.2973 54.8419C47.2973 58.6279 50.3224 61.6971 54.054 61.6971C57.7857 61.6971 60.8108 58.6279 60.8108 54.8419C60.8108 51.0559 57.7857 47.9867 54.054 47.9867C50.3224 47.9867 47.2973 51.0559 47.2973 54.8419Z" fill="url(#paint10_linear_1474_8473)"/>
<path d="M0 54.8419C0 58.6279 3.0251 61.6971 6.75676 61.6971C10.4884 61.6971 13.5135 58.6279 13.5135 54.8419C13.5135 51.0559 10.4884 47.9867 6.75676 47.9867C3.0251 47.9867 0 51.0559 0 54.8419Z" fill="url(#paint11_linear_1474_8473)"/>
<path d="M236.486 102.829C236.486 106.615 239.512 109.684 243.243 109.684C246.975 109.684 250 106.615 250 102.829C250 99.0425 246.975 95.9733 243.243 95.9733C239.512 95.9733 236.486 99.0425 236.486 102.829Z" fill="url(#paint12_linear_1474_8473)"/>
<path d="M189.189 102.829C189.189 106.615 192.214 109.684 195.946 109.684C199.678 109.684 202.703 106.615 202.703 102.829C202.703 99.0425 199.678 95.9733 195.946 95.9733C192.214 95.9733 189.189 99.0425 189.189 102.829Z" fill="url(#paint13_linear_1474_8473)"/>
<path d="M141.892 102.829C141.892 106.615 144.917 109.684 148.649 109.684C152.38 109.684 155.405 106.615 155.405 102.829C155.405 99.0425 152.38 95.9733 148.649 95.9733C144.917 95.9733 141.892 99.0425 141.892 102.829Z" fill="url(#paint14_linear_1474_8473)"/>
<path d="M94.5946 102.829C94.5946 106.615 97.6197 109.684 101.351 109.684C105.083 109.684 108.108 106.615 108.108 102.829C108.108 99.0425 105.083 95.9733 101.351 95.9733C97.6197 95.9733 94.5946 99.0425 94.5946 102.829Z" fill="url(#paint15_linear_1474_8473)"/>
<path d="M47.2973 102.829C47.2973 106.615 50.3224 109.684 54.054 109.684C57.7857 109.684 60.8108 106.615 60.8108 102.829C60.8108 99.0425 57.7857 95.9733 54.054 95.9733C50.3224 95.9733 47.2973 99.0425 47.2973 102.829Z" fill="url(#paint16_linear_1474_8473)"/>
<path d="M0 102.829C0 106.615 3.0251 109.684 6.75676 109.684C10.4884 109.684 13.5135 106.615 13.5135 102.829C13.5135 99.0425 10.4884 95.9733 6.75676 95.9733C3.0251 95.9733 0 99.0425 0 102.829Z" fill="url(#paint17_linear_1474_8473)"/>
<defs>
<linearGradient id="paint0_linear_1474_8473" x1="124" y1="5.52353e-06" x2="123.54" y2="179.999" gradientUnits="userSpaceOnUse">
<stop offset="0.285271" stop-opacity="0.25"/>
<stop offset="1" stop-color="white" stop-opacity="0"/>
</linearGradient>
<linearGradient id="paint1_linear_1474_8473" x1="124" y1="5.52353e-06" x2="123.54" y2="179.999" gradientUnits="userSpaceOnUse">
<stop offset="0.285271" stop-opacity="0.25"/>
<stop offset="1" stop-color="white" stop-opacity="0"/>
</linearGradient>
<linearGradient id="paint2_linear_1474_8473" x1="124" y1="5.52353e-06" x2="123.54" y2="179.999" gradientUnits="userSpaceOnUse">
<stop offset="0.285271" stop-opacity="0.25"/>
<stop offset="1" stop-color="white" stop-opacity="0"/>
</linearGradient>
<linearGradient id="paint3_linear_1474_8473" x1="124" y1="5.52353e-06" x2="123.54" y2="179.999" gradientUnits="userSpaceOnUse">
<stop offset="0.285271" stop-opacity="0.25"/>
<stop offset="1" stop-color="white" stop-opacity="0"/>
</linearGradient>
<linearGradient id="paint4_linear_1474_8473" x1="124" y1="5.52353e-06" x2="123.54" y2="179.999" gradientUnits="userSpaceOnUse">
<stop offset="0.285271" stop-opacity="0.25"/>
<stop offset="1" stop-color="white" stop-opacity="0"/>
</linearGradient>
<linearGradient id="paint5_linear_1474_8473" x1="124" y1="5.52353e-06" x2="123.54" y2="179.999" gradientUnits="userSpaceOnUse">
<stop offset="0.285271" stop-opacity="0.25"/>
<stop offset="1" stop-color="white" stop-opacity="0"/>
</linearGradient>
<linearGradient id="paint6_linear_1474_8473" x1="124" y1="5.52353e-06" x2="123.54" y2="179.999" gradientUnits="userSpaceOnUse">
<stop offset="0.285271" stop-opacity="0.25"/>
<stop offset="1" stop-color="white" stop-opacity="0"/>
</linearGradient>
<linearGradient id="paint7_linear_1474_8473" x1="124" y1="5.52353e-06" x2="123.54" y2="179.999" gradientUnits="userSpaceOnUse">
<stop offset="0.285271" stop-opacity="0.25"/>
<stop offset="1" stop-color="white" stop-opacity="0"/>
</linearGradient>
<linearGradient id="paint8_linear_1474_8473" x1="124" y1="5.52353e-06" x2="123.54" y2="179.999" gradientUnits="userSpaceOnUse">
<stop offset="0.285271" stop-opacity="0.25"/>
<stop offset="1" stop-color="white" stop-opacity="0"/>
</linearGradient>
<linearGradient id="paint9_linear_1474_8473" x1="124" y1="5.52353e-06" x2="123.54" y2="179.999" gradientUnits="userSpaceOnUse">
<stop offset="0.285271" stop-opacity="0.25"/>
<stop offset="1" stop-color="white" stop-opacity="0"/>
</linearGradient>
<linearGradient id="paint10_linear_1474_8473" x1="124" y1="5.52353e-06" x2="123.54" y2="179.999" gradientUnits="userSpaceOnUse">
<stop offset="0.285271" stop-opacity="0.25"/>
<stop offset="1" stop-color="white" stop-opacity="0"/>
</linearGradient>
<linearGradient id="paint11_linear_1474_8473" x1="124" y1="5.52353e-06" x2="123.54" y2="179.999" gradientUnits="userSpaceOnUse">
<stop offset="0.285271" stop-opacity="0.25"/>
<stop offset="1" stop-color="white" stop-opacity="0"/>
</linearGradient>
<linearGradient id="paint12_linear_1474_8473" x1="124" y1="5.52353e-06" x2="123.54" y2="179.999" gradientUnits="userSpaceOnUse">
<stop offset="0.285271" stop-opacity="0.25"/>
<stop offset="1" stop-color="white" stop-opacity="0"/>
</linearGradient>
<linearGradient id="paint13_linear_1474_8473" x1="124" y1="5.52353e-06" x2="123.54" y2="179.999" gradientUnits="userSpaceOnUse">
<stop offset="0.285271" stop-opacity="0.25"/>
<stop offset="1" stop-color="white" stop-opacity="0"/>
</linearGradient>
<linearGradient id="paint14_linear_1474_8473" x1="124" y1="5.52353e-06" x2="123.54" y2="179.999" gradientUnits="userSpaceOnUse">
<stop offset="0.285271" stop-opacity="0.25"/>
<stop offset="1" stop-color="white" stop-opacity="0"/>
</linearGradient>
<linearGradient id="paint15_linear_1474_8473" x1="124" y1="5.52353e-06" x2="123.54" y2="179.999" gradientUnits="userSpaceOnUse">
<stop offset="0.285271" stop-opacity="0.25"/>
<stop offset="1" stop-color="white" stop-opacity="0"/>
</linearGradient>
<linearGradient id="paint16_linear_1474_8473" x1="124" y1="5.52353e-06" x2="123.54" y2="179.999" gradientUnits="userSpaceOnUse">
<stop offset="0.285271" stop-opacity="0.25"/>
<stop offset="1" stop-color="white" stop-opacity="0"/>
</linearGradient>
<linearGradient id="paint17_linear_1474_8473" x1="124" y1="5.52353e-06" x2="123.54" y2="179.999" gradientUnits="userSpaceOnUse">
<stop offset="0.285271" stop-opacity="0.25"/>
<stop offset="1" stop-color="white" stop-opacity="0"/>
</linearGradient>
</defs>
</svg>
