<svg width="138" height="138" viewBox="0 0 138 138" fill="none" xmlns="http://www.w3.org/2000/svg">
<path d="M69 0C104.508 0 133.799 26.4242 138 60.5419H104.323C100.489 44.7083 86.1288 32.9419 69 32.9419C51.8712 32.9419 37.5112 44.7083 33.6767 60.5419H0C4.20132 26.4242 33.4917 0 69 0Z" fill="#17171B"/>
<path d="M104.323 77.4581H138C133.799 111.576 104.508 138 69 138C33.4917 138 4.20132 111.576 0 77.4581H33.6767C37.5112 93.2917 51.8712 105.058 69 105.058C86.1288 105.058 100.489 93.2917 104.323 77.4581Z" fill="#17171B"/>
<path d="M69 91.7032C81.6326 91.7032 91.8734 81.5387 91.8734 69C91.8734 56.4614 81.6326 46.2968 69 46.2968C56.3674 46.2968 46.1266 56.4614 46.1266 69C46.1266 81.5387 56.3674 91.7032 69 91.7032Z" fill="#17171B"/>
</svg>
