<svg width="40" height="40" viewBox="0 0 40 40" fill="none" xmlns="http://www.w3.org/2000/svg">
<path d="M33.9464 17.9601H11.0078L21.0293 7.93854C21.8302 7.13764 21.8302 5.82334 21.0293 5.02244C20.8393 4.83206 20.6137 4.68102 20.3652 4.57797C20.1168 4.47492 19.8505 4.42188 19.5815 4.42188C19.3126 4.42188 19.0463 4.47492 18.7978 4.57797C18.5494 4.68102 18.3237 4.83206 18.1337 5.02244L4.60056 18.5556C4.41019 18.7456 4.25915 18.9713 4.1561 19.2197C4.05304 19.4681 4 19.7344 4 20.0034C4 20.2724 4.05304 20.5387 4.1561 20.7871C4.25915 21.0355 4.41019 21.2612 4.60056 21.4512L18.1337 34.9844C18.3239 35.1745 18.5496 35.3253 18.798 35.4282C19.0464 35.5311 19.3126 35.584 19.5815 35.584C19.8504 35.584 20.1166 35.5311 20.3651 35.4282C20.6135 35.3253 20.8392 35.1745 21.0293 34.9844C21.2194 34.7942 21.3702 34.5685 21.4731 34.3201C21.576 34.0717 21.629 33.8055 21.629 33.5366C21.629 33.2677 21.576 33.0015 21.4731 32.753C21.3702 32.5046 21.2194 32.2789 21.0293 32.0888L11.0078 22.0673H33.9464C35.0759 22.0673 36 21.1431 36 20.0137C36 18.8842 35.0759 17.9601 33.9464 17.9601Z" fill="#747476"/>
</svg>
