<svg width="286" height="286" viewBox="0 0 286 286" fill="none" xmlns="http://www.w3.org/2000/svg">
<circle cx="143" cy="143" r="40" fill="white"/>
<path d="M143 29C201.579 29 249.965 72.5714 257 129H198.708C192.247 104.286 169.705 86.1429 143 86.1429C116.295 86.1429 93.7531 104.286 87.4358 129H29C36.0353 72.5714 84.4207 29 143 29Z" fill="#FF6568"/>
<path d="M143 257C84.4207 257 36.0353 213.429 29 157H87.2922C93.7532 181.714 116.295 199.857 143 199.857C169.705 199.857 192.247 181.714 198.564 157H257C249.965 213.429 201.579 257 143 257Z" fill="white"/>
<path d="M143 0C64.064 0 0 64.064 0 143C0 221.936 64.064 286 143 286C221.936 286 286 221.936 286 143C286 64.064 221.936 0 143 0ZM143 28.6C201.344 28.6 249.535 72.215 256.542 128.7H198.484C192.049 103.961 169.598 85.8 143 85.8C116.402 85.8 93.951 103.961 87.659 128.7H29.458C36.465 72.215 84.656 28.6 143 28.6ZM171.6 143C171.6 158.73 158.73 171.6 143 171.6C127.27 171.6 114.4 158.73 114.4 143C114.4 127.27 127.27 114.4 143 114.4C158.73 114.4 171.6 127.27 171.6 143ZM143 257.4C84.656 257.4 36.465 213.785 29.458 157.3H87.516C93.808 182.039 116.259 200.2 142.857 200.2C169.455 200.2 191.906 182.039 198.198 157.3H256.256C249.535 213.785 201.344 257.4 143 257.4Z" fill="black"/>
</svg>
