<svg width="42" height="42" viewBox="0 0 42 42" fill="none" xmlns="http://www.w3.org/2000/svg">
<path d="M21.0001 0.166992C9.50008 0.166992 0.166748 9.50033 0.166748 21.0003C0.166748 32.5003 9.50008 41.8337 21.0001 41.8337C32.5001 41.8337 41.8334 32.5003 41.8334 21.0003C41.8334 9.50033 32.5001 0.166992 21.0001 0.166992ZM21.0001 4.33366C29.5001 4.33366 36.5209 10.6878 37.5418 18.917H29.0834C28.1459 15.3128 24.8751 12.667 21.0001 12.667C17.1251 12.667 13.8542 15.3128 12.9376 18.917H4.45842C5.47925 10.6878 12.5001 4.33366 21.0001 4.33366ZM25.1667 21.0003C25.1667 23.292 23.2917 25.167 21.0001 25.167C18.7084 25.167 16.8334 23.292 16.8334 21.0003C16.8334 18.7087 18.7084 16.8337 21.0001 16.8337C23.2917 16.8337 25.1667 18.7087 25.1667 21.0003ZM21.0001 37.667C12.5001 37.667 5.47925 31.3128 4.45842 23.0837H12.9167C13.8334 26.6878 17.1042 29.3337 20.9792 29.3337C24.8542 29.3337 28.1251 26.6878 29.0417 23.0837H37.5001C36.5209 31.3128 29.5001 37.667 21.0001 37.667Z" fill="black"/>
</svg>
